<svg width="134" height="47" viewBox="0 0 134 47" fill="none" xmlns="http://www.w3.org/2000/svg">
<circle cx="23.5" cy="24.5" r="20.5" fill="#3850B7"/>
<path d="M53.612 39.36C51.956 39.36 50.504 38.976 49.256 38.208C48.008 37.44 47.036 36.396 46.34 35.076C45.668 33.732 45.332 32.22 45.332 30.54C45.332 28.668 45.668 27.072 46.34 25.752C47.036 24.432 47.984 23.436 49.184 22.764C50.384 22.068 51.74 21.72 53.252 21.72C54.74 21.72 56.084 22.02 57.284 22.62C58.484 23.22 59.432 24.072 60.128 25.176C60.824 26.256 61.172 27.504 61.172 28.92C61.172 29.376 61.148 29.892 61.1 30.468L61.028 31.188H50.192C50.192 33.468 50.54 35.136 51.236 36.192C51.932 37.224 52.904 37.74 54.152 37.74C55.304 37.74 56.264 37.488 57.032 36.984C57.824 36.456 58.58 35.712 59.3 34.752L60.416 35.58C59.72 36.66 58.844 37.56 57.788 38.28C56.756 39 55.364 39.36 53.612 39.36ZM56.312 29.568C56.312 27.312 56.048 25.716 55.52 24.78C54.992 23.82 54.236 23.34 53.252 23.34C52.34 23.34 51.596 23.832 51.02 24.816C50.468 25.776 50.192 27.36 50.192 29.568H56.312ZM68.7604 39.36C66.8164 39.36 65.3044 38.928 64.2244 38.064C63.1684 37.176 62.6404 35.988 62.6404 34.5C62.6404 33.3 62.9164 32.304 63.4684 31.512C64.0444 30.72 65.0404 30.12 66.4564 29.712C67.8724 29.304 69.8404 29.1 72.3604 29.1H72.9004C72.9004 27.012 72.6124 25.536 72.0364 24.672C71.4604 23.784 70.6084 23.34 69.4804 23.34C68.5444 23.34 67.7764 23.568 67.1764 24.024C66.5764 24.48 66.1444 25.332 65.8804 26.58H63.9004C63.9004 25.764 63.9484 25.068 64.0444 24.492C64.1644 23.916 64.4164 23.412 64.8004 22.98C65.5444 22.14 67.3444 21.72 70.2004 21.72C72.6004 21.72 74.4244 22.356 75.6724 23.628C76.9444 24.876 77.5804 26.76 77.5804 29.28V39H74.5204L73.2604 37.38H73.0804C72.8644 37.716 72.5284 38.052 72.0724 38.388C71.2564 39.036 70.1524 39.36 68.7604 39.36ZM69.8404 37.56C70.3444 37.56 70.7764 37.464 71.1364 37.272C71.4964 37.056 71.8444 36.768 72.1804 36.408C72.4924 36.072 72.7324 35.676 72.9004 35.22V30.72H72.3604C70.6564 30.72 69.4204 31.032 68.6524 31.656C67.8844 32.256 67.5004 33.204 67.5004 34.5C67.5004 35.484 67.7044 36.24 68.1124 36.768C68.5204 37.296 69.0964 37.56 69.8404 37.56ZM81.1211 26.22C80.4731 24.876 79.9211 23.94 79.4651 23.412C79.0091 22.86 78.4931 22.56 77.9171 22.512V21.792L79.2491 21.72C80.8571 21.72 82.2011 22.032 83.2811 22.656C84.3851 23.28 85.3451 24.468 86.1611 26.22L89.3291 33.132L94.2251 22.08H96.1691L88.5011 39.36H87.2051L81.1211 26.22ZM104.995 39.36C103.339 39.36 101.887 38.976 100.639 38.208C99.391 37.44 98.419 36.396 97.723 35.076C97.051 33.732 96.715 32.22 96.715 30.54C96.715 28.668 97.051 27.072 97.723 25.752C98.419 24.432 99.367 23.436 100.567 22.764C101.767 22.068 103.123 21.72 104.635 21.72C106.123 21.72 107.467 22.02 108.667 22.62C109.867 23.22 110.815 24.072 111.511 25.176C112.207 26.256 112.555 27.504 112.555 28.92C112.555 29.376 112.531 29.892 112.483 30.468L112.411 31.188H101.575C101.575 33.468 101.923 35.136 102.619 36.192C103.315 37.224 104.287 37.74 105.535 37.74C106.687 37.74 107.647 37.488 108.415 36.984C109.207 36.456 109.963 35.712 110.683 34.752L111.799 35.58C111.103 36.66 110.227 37.56 109.171 38.28C108.139 39 106.747 39.36 104.995 39.36ZM107.695 29.568C107.695 27.312 107.431 25.716 106.903 24.78C106.375 23.82 105.619 23.34 104.635 23.34C103.723 23.34 102.979 23.832 102.403 24.816C101.851 25.776 101.575 27.36 101.575 29.568H107.695ZM119.294 31.476L115.838 25.68C115.334 24.84 114.794 24.18 114.218 23.7C113.642 23.196 113.066 22.896 112.49 22.8V22.08H115.91C117.014 22.08 117.914 22.32 118.61 22.8C119.306 23.28 119.942 24 120.518 24.96L122.246 27.876L126.962 22.08H129.374L123.29 29.568L126.782 35.4C127.286 36.24 127.826 36.912 128.402 37.416C128.978 37.896 129.554 38.184 130.13 38.28V39H126.71C125.606 39 124.706 38.76 124.01 38.28C123.314 37.8 122.678 37.08 122.102 36.12L120.338 33.204L115.622 39H113.21L119.294 31.476Z" fill="#3850B7"/>
<path d="M11.196 19.452C10.668 18.132 10.128 17.196 9.576 16.644C9.024 16.092 8.376 15.768 7.632 15.672V14.952L9.144 14.88C10.752 14.88 12.156 15.18 13.356 15.78C14.556 16.356 15.528 17.58 16.272 19.452L21.132 31.872L24.372 22.656L23.112 19.452C22.584 18.156 22.008 17.232 21.384 16.68C20.784 16.104 20.088 15.768 19.296 15.672V14.952L20.7 14.88C22.308 14.88 23.712 15.18 24.912 15.78C26.112 16.38 27.084 17.604 27.828 19.452L32.976 32.556L39.132 15.24H40.86L32.328 39.324H30.888L25.344 25.212L20.412 39.324H18.972L11.196 19.452Z" fill="white"/>
</svg>
