<svg width="209" height="49" viewBox="0 0 209 49" fill="none" xmlns="http://www.w3.org/2000/svg">
<path d="M58.684 15.108C58.0387 13.4947 57.3787 12.3507 56.704 11.676C56.0293 11.0013 55.2373 10.6053 54.328 10.488V9.608L56.176 9.52C58.1413 9.52 59.8573 9.88667 61.324 10.62C62.7907 11.324 63.9787 12.82 64.888 15.108L70.828 30.288L74.788 19.024L73.248 15.108C72.6027 13.524 71.8987 12.3947 71.136 11.72C70.4027 11.016 69.552 10.6053 68.584 10.488V9.608L70.3 9.52C72.2653 9.52 73.9813 9.88667 75.448 10.62C76.9147 11.3533 78.1027 12.8493 79.012 15.108L85.304 31.124L92.828 9.96H94.94L84.512 39.396H82.752L75.976 22.148L69.948 39.396H68.188L58.684 15.108ZM104.83 39.44C102.806 39.44 101.031 38.9707 99.506 38.032C97.9807 37.0933 96.7927 35.8173 95.942 34.204C95.1207 32.5613 94.71 30.7133 94.71 28.66C94.71 26.372 95.1207 24.4213 95.942 22.808C96.7927 21.1947 97.9514 19.9773 99.418 19.156C100.885 18.3053 102.542 17.88 104.39 17.88C106.209 17.88 107.851 18.2467 109.318 18.98C110.785 19.7133 111.943 20.7547 112.794 22.104C113.645 23.424 114.07 24.9493 114.07 26.68C114.07 27.2373 114.041 27.868 113.982 28.572L113.894 29.452H100.65C100.65 32.2387 101.075 34.2773 101.926 35.568C102.777 36.8293 103.965 37.46 105.49 37.46C106.898 37.46 108.071 37.152 109.01 36.536C109.978 35.8907 110.902 34.9813 111.782 33.808L113.146 34.82C112.295 36.14 111.225 37.24 109.934 38.12C108.673 39 106.971 39.44 104.83 39.44ZM108.13 27.472C108.13 24.7147 107.807 22.764 107.162 21.62C106.517 20.4467 105.593 19.86 104.39 19.86C103.275 19.86 102.366 20.4613 101.662 21.664C100.987 22.8373 100.65 24.7733 100.65 27.472H108.13ZM124.225 39.44C121.849 39.44 120.001 38.912 118.681 37.856C117.39 36.7707 116.745 35.3187 116.745 33.5C116.745 32.0333 117.082 30.816 117.757 29.848C118.461 28.88 119.678 28.1467 121.409 27.648C123.139 27.1493 125.545 26.9 128.625 26.9H129.285C129.285 24.348 128.933 22.544 128.229 21.488C127.525 20.4027 126.483 19.86 125.105 19.86C123.961 19.86 123.022 20.1387 122.289 20.696C121.555 21.2533 121.027 22.2947 120.705 23.82H118.285C118.285 22.8227 118.343 21.972 118.461 21.268C118.607 20.564 118.915 19.948 119.385 19.42C120.294 18.3933 122.494 17.88 125.985 17.88C128.918 17.88 131.147 18.6573 132.673 20.212C134.227 21.7373 135.005 24.04 135.005 27.12V39H131.265L129.725 37.02H129.505C129.241 37.4307 128.83 37.8413 128.273 38.252C127.275 39.044 125.926 39.44 124.225 39.44ZM125.545 37.24C126.161 37.24 126.689 37.1227 127.129 36.888C127.569 36.624 127.994 36.272 128.405 35.832C128.786 35.4213 129.079 34.9373 129.285 34.38V28.88H128.625C126.542 28.88 125.031 29.2613 124.093 30.024C123.154 30.7573 122.685 31.916 122.685 33.5C122.685 34.7027 122.934 35.6267 123.433 36.272C123.931 36.9173 124.635 37.24 125.545 37.24ZM140.212 23.38C139.42 21.7373 138.746 20.5933 138.188 19.948C137.631 19.2733 137 18.9067 136.296 18.848V17.968L137.924 17.88C139.89 17.88 141.532 18.2613 142.852 19.024C144.202 19.7867 145.375 21.2387 146.372 23.38L150.244 31.828L156.228 18.32H158.604L149.232 39.44H147.648L140.212 23.38ZM170.271 39.44C168.247 39.44 166.473 38.9707 164.947 38.032C163.422 37.0933 162.234 35.8173 161.383 34.204C160.562 32.5613 160.151 30.7133 160.151 28.66C160.151 26.372 160.562 24.4213 161.383 22.808C162.234 21.1947 163.393 19.9773 164.859 19.156C166.326 18.3053 167.983 17.88 169.831 17.88C171.65 17.88 173.293 18.2467 174.759 18.98C176.226 19.7133 177.385 20.7547 178.235 22.104C179.086 23.424 179.511 24.9493 179.511 26.68C179.511 27.2373 179.482 27.868 179.423 28.572L179.335 29.452H166.091C166.091 32.2387 166.517 34.2773 167.367 35.568C168.218 36.8293 169.406 37.46 170.931 37.46C172.339 37.46 173.513 37.152 174.451 36.536C175.419 35.8907 176.343 34.9813 177.223 33.808L178.587 34.82C177.737 36.14 176.666 37.24 175.375 38.12C174.114 39 172.413 39.44 170.271 39.44ZM173.571 27.472C173.571 24.7147 173.249 22.764 172.603 21.62C171.958 20.4467 171.034 19.86 169.831 19.86C168.717 19.86 167.807 20.4613 167.103 21.664C166.429 22.8373 166.091 24.7733 166.091 27.472H173.571ZM190.463 25.316L184.215 15.68C183.452 14.448 182.513 13.3627 181.399 12.424C180.284 11.4853 179.257 10.9573 178.319 10.84V9.96H183.159C184.655 9.96 186.004 10.4293 187.207 11.368C188.439 12.3067 189.48 13.4507 190.331 14.8L194.159 20.696L202.651 9.96H205.511L195.435 22.676L202.343 33.28C203.105 34.512 204.044 35.5973 205.159 36.536C206.273 37.4747 207.3 38.0027 208.239 38.12V39H203.399C201.903 39 200.539 38.5307 199.307 37.592C198.104 36.6533 197.077 35.5093 196.227 34.16L191.783 27.296L182.499 39H179.639L190.463 25.316Z" fill="white"/>
<path d="M20 14.5L34 18.5L29 33.5L14.5 28L20 14.5Z" fill="white"/>
<path d="M2 31.2097C4.43564 28.7876 12.2297 25.3966 23.9208 31.2097C35.6119 37.0229 41.5116 32.4208 43 29.3931" stroke="white" stroke-width="3" stroke-linecap="round" stroke-linejoin="round"/>
<path d="M5 16.2097C7.43564 13.7876 15.2297 10.3966 26.9208 16.2097C38.6119 22.0229 44.5116 17.4208 46 14.3931" stroke="white" stroke-width="3" stroke-linecap="round" stroke-linejoin="round"/>
<path d="M15.7903 2C18.2124 4.43564 21.6034 12.2297 15.7903 23.9208C9.97713 35.6119 14.5792 41.5116 17.6069 43" stroke="white" stroke-width="3" stroke-linecap="round" stroke-linejoin="round"/>
<path d="M31.7903 4C34.2124 6.43564 37.6034 14.2297 31.7903 25.9208C25.9771 37.6119 30.5792 43.5116 33.6069 45" stroke="white" stroke-width="3" stroke-linecap="round" stroke-linejoin="round"/>
</svg>
